<?xml version="1.0" standalone="no"?>
<!DOCTYPE svg PUBLIC "-//W3C//DTD SVG 20010904//EN"
 "http://www.w3.org/TR/2001/REC-SVG-20010904/DTD/svg10.dtd">
<svg version="1.0" xmlns="http://www.w3.org/2000/svg"
 width="512.000000pt" height="512.000000pt" viewBox="0 0 512.000000 512.000000"
 preserveAspectRatio="xMidYMid meet">
<metadata>
Created by potrace 1.16, written by Peter Selinger 2001-2019
</metadata>
<g transform="translate(0.000000,512.000000) scale(0.100000,-0.100000)"
fill="#000000" stroke="none">
<path d="M303 5052 c-86 -74 -272 -269 -286 -299 -33 -73 41 -14 241 191 78
80 142 151 142 156 0 23 -34 6 -97 -48z"/>
<path d="M503 5051 c-104 -90 -480 -475 -488 -500 -12 -37 2 -35 52 7 72 60
533 529 533 541 0 24 -33 8 -97 -48z"/>
<path d="M703 5051 c-112 -97 -680 -674 -687 -699 -23 -71 24 -29 442 391 188
189 342 349 342 356 0 24 -32 8 -97 -48z"/>
<path d="M903 5051 c-116 -100 -880 -875 -888 -899 -22 -72 19 -35 543 491
243 244 442 449 442 455 0 25 -32 10 -97 -47z"/>
<path d="M1103 5051 c-118 -102 -1080 -1075 -1088 -1099 -11 -38 2 -37 52 6
79 66 1133 1127 1133 1140 0 25 -32 10 -97 -47z"/>
<path d="M1303 5051 c-119 -104 -1280 -1275 -1288 -1299 -11 -38 2 -37 52 6
80 67 1333 1327 1333 1340 0 25 -32 10 -97 -47z"/>
<path d="M1503 5051 c-121 -105 -1480 -1475 -1488 -1499 -11 -38 2 -37 52 6
81 68 1533 1527 1533 1540 0 25 -32 10 -97 -47z"/>
<path d="M1703 5051 c-121 -105 -1680 -1675 -1688 -1699 -11 -38 2 -37 52 6
81 68 1733 1727 1733 1740 0 25 -32 10 -97 -47z"/>
<path d="M1933 5078 c-61 -50 -1799 -1786 -1864 -1861 -56 -65 -72 -97 -48
-97 7 0 175 163 375 362 l364 362 0 -65 0 -64 -316 -315 c-398 -397 -471 -480
-423 -480 7 0 177 165 380 366 l368 367 6 -39 c4 -22 9 -46 11 -54 2 -10 -119
-138 -327 -345 -414 -413 -487 -495 -438 -495 7 0 186 173 398 384 l386 385
16 -49 15 -49 -354 -353 c-195 -194 -380 -383 -413 -421 -56 -65 -72 -97 -47
-97 6 0 197 185 424 411 l412 411 22 -42 22 -43 -414 -416 c-228 -229 -429
-433 -446 -454 -33 -38 -41 -67 -20 -67 6 0 212 201 458 446 l448 446 28 -37
27 -36 -455 -457 c-250 -251 -469 -474 -486 -495 -33 -39 -41 -67 -20 -67 6 0
232 221 503 490 l491 490 32 -33 32 -33 -476 -474 c-262 -261 -502 -505 -535
-543 -57 -65 -72 -97 -47 -97 6 0 255 243 552 539 l541 539 35 -29 35 -29
-556 -558 c-306 -306 -570 -574 -587 -595 -33 -39 -41 -67 -20 -67 6 0 280
268 608 596 l597 595 36 -21 c21 -12 37 -25 37 -29 0 -3 -264 -269 -586 -591
-322 -322 -612 -615 -645 -653 -57 -65 -72 -97 -47 -97 6 0 309 297 672 659
l661 660 42 -22 43 -22 -656 -655 c-361 -360 -682 -685 -715 -723 -57 -65 -72
-97 -47 -97 7 0 341 328 742 729 l731 730 45 -12 c25 -6 47 -13 50 -14 2 -2
-338 -347 -756 -766 -418 -419 -775 -779 -792 -800 -33 -39 -41 -67 -20 -67 7
0 377 364 823 810 l811 810 64 0 65 0 -856 -858 c-470 -471 -870 -874 -887
-895 -33 -39 -41 -67 -20 -67 7 0 424 411 928 914 l915 914 70 20 c39 10 79
23 90 27 11 4 -424 -437 -966 -981 -542 -544 -1000 -1006 -1017 -1027 -33 -38
-41 -67 -20 -67 6 0 201 190 434 422 l423 421 -39 -74 c-21 -41 -46 -94 -56
-119 -13 -36 -84 -113 -364 -395 -190 -192 -361 -367 -378 -388 -33 -38 -41
-67 -21 -67 7 0 169 156 362 348 236 234 348 339 344 322 -4 -14 -11 -50 -18
-80 -11 -55 -13 -57 -323 -370 -172 -173 -327 -332 -344 -353 -32 -38 -41 -67
-21 -67 7 0 159 147 339 326 l328 326 -5 -69 -5 -68 -302 -305 c-167 -168
-317 -322 -334 -343 -32 -38 -41 -67 -21 -67 6 0 157 145 335 322 l324 322 0
-42 c0 -37 3 -42 22 -42 16 0 -61 -83 -305 -329 -180 -180 -327 -333 -327
-340 0 -47 84 26 445 388 l280 281 64 0 65 0 -327 -329 c-180 -180 -327 -333
-327 -340 0 -47 84 26 445 388 l280 281 64 0 65 0 -327 -329 c-180 -180 -327
-333 -327 -340 0 -47 84 26 445 388 l280 281 64 0 65 0 -327 -329 c-180 -180
-327 -333 -327 -340 0 -47 84 26 445 388 l280 281 64 0 65 0 -327 -329 c-180
-180 -327 -333 -327 -340 0 -47 84 26 445 388 l280 281 64 0 65 0 -327 -329
c-180 -180 -327 -333 -327 -340 0 -47 84 26 445 388 l280 281 64 0 65 0 -327
-329 c-180 -180 -327 -333 -327 -340 0 -47 84 26 445 388 l280 281 64 0 65 0
-327 -329 c-180 -180 -327 -333 -327 -340 0 -47 84 26 445 388 l280 281 64 0
65 0 -327 -329 c-180 -180 -327 -333 -327 -340 0 -47 84 26 445 388 l280 281
64 0 65 0 -327 -329 c-180 -180 -327 -333 -327 -340 0 -47 84 26 445 388 l280
281 64 0 65 0 -327 -329 c-180 -180 -327 -333 -327 -340 0 -47 84 26 445 388
l280 281 64 0 65 0 -327 -329 c-180 -180 -327 -333 -327 -340 0 -47 84 26 445
388 l280 281 64 0 65 0 -327 -329 c-180 -180 -327 -333 -327 -340 0 -47 84 26
445 388 l280 281 64 0 65 0 -327 -329 c-180 -180 -327 -333 -327 -340 0 -47
84 26 445 388 l280 281 64 0 65 0 -327 -329 c-180 -180 -327 -333 -327 -340 0
-47 84 26 445 388 l280 281 64 0 65 0 -327 -329 c-180 -180 -327 -333 -327
-340 0 -47 84 26 445 388 l280 281 64 0 65 0 -327 -329 c-180 -180 -327 -333
-327 -340 0 -47 84 26 445 388 l280 281 64 0 65 0 -327 -329 c-180 -180 -327
-333 -327 -340 0 -47 84 26 445 388 l280 281 64 0 65 0 -327 -329 c-180 -180
-327 -333 -327 -340 0 -47 84 26 445 388 201 202 286 281 302 281 17 0 23 6
23 23 0 16 79 101 281 302 362 361 435 445 388 445 -7 0 -160 -147 -340 -327
l-329 -327 0 65 0 64 281 280 c362 361 435 445 388 445 -7 0 -161 -149 -344
-331 l-333 -331 -9 54 -10 53 322 325 c177 179 336 342 353 363 33 38 41 67
21 67 -7 0 -168 -156 -359 -346 l-348 -346 -11 53 -12 53 339 341 c186 187
353 357 370 378 33 38 41 67 21 67 -7 0 -177 -164 -379 -365 l-367 -366 -18
47 -18 46 365 367 c200 201 379 383 396 404 33 38 41 67 21 67 -7 0 -188 -175
-403 -390 -216 -214 -395 -390 -398 -390 -3 0 -13 19 -23 42 l-16 42 394 395
c216 218 408 413 425 434 33 38 41 67 20 67 -6 0 -203 -191 -438 -425 l-427
-426 -25 39 -26 39 405 404 c223 222 431 434 464 472 57 65 72 97 47 97 -6 0
-221 -210 -478 -466 l-467 -465 -27 31 c-14 17 -26 35 -26 38 0 4 201 207 446
452 245 245 472 475 505 513 57 65 72 97 47 97 -6 0 -242 -230 -524 -511
l-512 -511 -37 28 -36 27 529 531 c290 292 543 548 560 569 33 39 41 67 20 67
-6 0 -266 -254 -578 -565 -311 -311 -569 -565 -572 -565 -4 0 -23 10 -43 22
l-37 21 589 591 c324 325 604 608 621 629 33 39 41 67 20 67 -6 0 -296 -284
-644 -632 l-633 -631 -47 18 -46 18 659 661 c363 363 674 678 691 699 33 39
41 67 20 67 -6 0 -330 -318 -719 -706 l-707 -707 -58 8 -57 7 745 746 c409
411 759 764 776 785 33 39 41 67 20 67 -7 0 -372 -359 -812 -799 l-801 -799
-70 -6 -70 -6 851 853 c468 468 865 869 882 890 33 39 41 67 20 67 -7 0 -429
-416 -938 -924 -837 -836 -931 -927 -990 -956 -36 -18 -93 -52 -127 -76 -34
-23 -65 -40 -67 -35 -3 4 450 461 1005 1017 556 555 1037 1039 1070 1077 57
65 72 97 47 97 -7 0 -496 -483 -1088 -1074 l-1075 -1075 -35 30 -35 29 1091
1093 c600 600 1105 1109 1122 1130 33 39 41 67 20 67 -7 0 -522 -509 -1144
-1131 l-1132 -1132 -46 19 -46 19 1158 1160 c637 638 1173 1177 1190 1198 33
39 41 67 20 67 -7 0 -555 -542 -1218 -1204 l-1205 -1204 -59 5 -58 6 1244
1246 c685 685 1259 1263 1276 1284 33 39 41 67 20 67 -7 0 -598 -585 -1313
-1299 l-1300 -1299 -60 -10 c-33 -6 -69 -14 -80 -17 -11 -4 592 606 1341 1356
748 750 1375 1381 1392 1402 33 39 41 67 20 67 -7 0 -653 -640 -1436 -1422
-1140 -1140 -1423 -1417 -1419 -1393 3 17 8 50 12 75 5 45 21 61 1371 1410
751 751 1392 1395 1425 1433 57 65 72 97 47 97 -7 0 -647 -633 -1422 -1407
-775 -775 -1406 -1401 -1403 -1392 3 9 8 42 12 75 l7 59 372 373 c339 341 377
376 443 408 119 59 226 170 293 304 16 32 245 268 806 831 431 432 784 790
784 797 0 21 -28 13 -67 -20 -21 -17 -358 -351 -749 -741 l-712 -709 17 81 17
81 647 648 c356 357 647 654 647 660 0 21 -28 13 -67 -20 -21 -17 -302 -295
-625 -617 l-588 -586 0 65 0 64 540 541 c297 298 540 547 540 553 0 21 -28 13
-67 -20 -21 -17 -257 -250 -525 -517 l-488 -486 0 65 0 64 440 441 c242 243
440 447 440 453 0 21 -29 13 -67 -20 -21 -17 -214 -207 -429 -421 l-391 -389
-6 58 -6 59 349 351 c193 193 350 356 350 363 0 47 -84 -26 -444 -387 l-280
-281 -48 6 c-48 6 -48 6 -101 -50 -28 -30 -63 -61 -77 -67 -14 -7 149 163 363
377 213 215 387 395 387 402 0 20 -29 12 -67 -21 -21 -17 -216 -208 -433 -424
l-395 -392 -74 -22 c-40 -12 -81 -24 -90 -27 -9 -3 181 192 422 434 240 242
437 445 437 451 0 21 -29 13 -67 -20 -21 -17 -238 -230 -483 -473 -374 -372
-456 -448 -512 -479 -90 -49 -180 -134 -240 -225 -26 -40 -48 -79 -48 -85 0
-6 -88 -99 -197 -208 l-196 -196 -28 36 -27 37 799 801 c439 440 799 805 799
812 0 21 -28 13 -67 -20 -21 -17 -381 -373 -800 -792 l-762 -760 -31 34 -31
33 745 747 c410 410 746 751 746 758 0 21 -28 13 -67 -20 -21 -17 -358 -351
-749 -741 l-712 -710 -36 22 c-20 13 -36 26 -36 29 0 4 315 322 700 707 385
386 700 707 700 713 0 21 -28 13 -67 -20 -21 -17 -340 -333 -709 -701 l-672
-670 -46 19 -45 19 669 671 c369 368 670 676 670 682 0 21 -28 13 -67 -20 -21
-17 -327 -319 -679 -671 l-642 -639 -51 13 -51 13 645 646 c355 355 645 652
645 658 0 21 -28 13 -67 -20 -21 -17 -317 -310 -658 -650 l-621 -619 -53 12
-53 11 626 627 c344 345 626 633 626 639 0 21 -28 13 -67 -20 -21 -17 -310
-303 -643 -635 l-606 -604 -58 7 -57 7 615 617 c339 339 616 622 616 628 0 25
-32 10 -97 -47 -38 -33 -322 -314 -633 -625 -564 -566 -565 -566 -600 -560
-19 3 -43 8 -54 11 -14 4 114 138 583 607 330 331 601 608 601 614 0 21 -28
13 -67 -20 -21 -17 -298 -290 -615 -607 l-578 -576 -29 18 c-16 9 -37 17 -47
17 -11 0 207 226 559 578 317 318 577 584 577 590 0 21 -28 13 -67 -20z m1151
-1239 l-258 -258 -27 37 -28 37 222 224 c188 189 231 227 282 250 l60 28 3
-30 c3 -28 -19 -53 -254 -288z m-239 -39 c-153 -153 -281 -277 -283 -275 -2 2
3 37 12 77 l16 74 170 169 170 170 93 32 c50 17 94 32 97 32 3 1 -121 -125
-275 -279z m157 -243 c-297 -297 -342 -338 -366 -335 l-26 3 37 55 c20 30 79
97 130 148 51 51 91 98 87 104 -4 6 100 117 232 249 l239 239 3 -62 3 -62
-339 -339z m302 153 l-18 -69 -185 -185 c-173 -171 -190 -185 -241 -199 -125
-36 -133 -48 170 257 157 157 287 281 289 275 2 -6 -5 -41 -15 -79z m-913
-100 l-15 -79 -127 -127 -127 -127 -22 43 -22 43 163 163 c90 90 164 164 164
164 0 0 -6 -36 -14 -80z m-1101 43 c5 -4 -241 -253 -251 -253 -3 0 -14 18 -24
41 l-19 40 95 95 94 94 50 -6 c27 -4 52 -9 55 -11z m162 -31 c4 -4 -71 -86
-166 -181 l-174 -174 -25 39 -25 39 146 148 147 148 45 -5 c24 -4 48 -10 52
-14z m125 -37 l37 -16 -202 -202 -202 -202 -32 33 -33 32 185 185 c102 102
191 185 198 185 7 0 29 -7 49 -15z m128 -68 l34 -23 -212 -212 -212 -211 -35
29 -35 29 205 206 c113 113 208 205 213 205 4 0 23 -10 42 -23z m118 -100 c15
-24 13 -26 -182 -221 l-198 -198 -43 22 -43 22 208 208 c222 222 222 222 258
167z m450 -189 c-54 -54 -100 -98 -103 -98 -3 0 -11 21 -18 47 l-13 47 113
113 113 113 3 -62 3 -62 -98 -98z m-375 84 l21 -38 -167 -167 -168 -167 -48
16 -48 17 188 188 c104 104 191 189 195 189 3 0 15 -17 27 -38z m451 -175
c-18 -40 -51 -84 -92 -125 l-64 -64 -7 58 -7 58 93 93 c89 90 93 92 100 68 5
-18 -2 -44 -23 -88z m286 -347 c-164 -164 -301 -298 -303 -296 -1 2 6 39 17
82 l20 78 195 195 196 196 83 21 c45 12 84 22 87 22 3 1 -130 -133 -295 -298z
m-91 109 c-76 -76 -140 -137 -141 -135 -2 2 12 45 31 96 27 72 45 104 80 139
l45 46 62 -3 62 -4 -139 -139z m-419 -159 l29 -31 -418 -418 c-326 -326 -426
-421 -450 -425 -17 -4 -66 -23 -109 -44 l-79 -39 494 494 c271 271 495 493
499 493 3 0 18 -14 34 -30z m35 -164 l-18 -79 -301 -301 -301 -301 -66 -1 -66
-2 383 384 c211 211 384 382 385 381 2 -1 -6 -38 -16 -81z m-50 -254 l-11 -68
-197 -197 -197 -196 -45 12 c-25 6 -47 13 -50 14 -2 2 110 118 250 258 140
140 256 252 258 250 2 -2 -1 -35 -8 -73z m-31 -227 l-9 -70 -113 -113 -114
-114 -43 22 -43 22 164 164 c89 90 164 162 165 161 1 -1 -2 -33 -7 -72z m-69
-730 l-505 -505 -65 0 -65 0 480 481 c264 264 489 485 500 491 22 13 109 36
140 37 13 1 -157 -176 -485 -504z m644 494 l39 -11 -494 -494 -494 -494 -65 0
-65 0 505 505 c278 278 512 505 520 505 8 0 33 -5 54 -11z m356 -494 l-505
-505 -65 0 -65 0 495 495 c336 336 505 498 525 504 17 5 50 10 75 10 l45 1
-505 -505z m638 490 c17 -4 32 -10 32 -13 0 -4 -219 -226 -487 -494 l-488
-488 -65 0 -65 0 505 505 c320 320 510 503 520 501 8 -3 30 -7 48 -11z m-861
-60 l28 -24 -455 -456 -455 -455 -65 0 -65 0 480 480 c264 264 485 480 492
480 6 0 25 -11 40 -25z m996 9 c18 -9 34 -18 37 -21 2 -2 -203 -211 -455 -463
l-460 -460 -65 0 -65 0 480 480 c264 264 484 480 488 480 4 0 22 -7 40 -16z
m-1013 -479 l-465 -465 -65 0 -65 0 382 382 c360 360 383 381 397 363 14 -19
17 -17 83 41 65 58 180 144 192 144 3 0 -203 -209 -459 -465z m1135 396 l33
-28 -417 -417 -416 -416 -65 0 -65 0 445 445 c245 245 447 445 449 445 2 0 18
-13 36 -29z m-1397 -458 l-403 -403 -65 0 -65 0 439 439 439 439 29 -36 29
-36 -403 -403z m-975 447 c16 0 -66 -88 -313 -335 -184 -184 -335 -333 -337
-331 -2 1 6 38 17 82 l20 79 252 252 c254 254 274 270 326 256 8 -1 23 -3 35
-3z m167 -48 c0 -4 -179 -186 -397 -404 -429 -429 -451 -447 -438 -350 7 46
13 53 377 418 l371 372 43 -15 c24 -8 44 -18 44 -21z m-370 25 c0 -1 -84 -85
-186 -187 -159 -158 -183 -178 -164 -140 64 129 174 245 281 299 61 30 69 34
69 28z m2675 -69 l27 -31 -364 -364 -363 -363 -65 0 -65 0 395 395 c217 217
398 395 402 395 3 0 18 -14 33 -32z m-2185 -17 c12 -9 -56 -81 -350 -376
l-365 -365 -65 0 -65 0 389 389 c387 387 390 390 415 376 14 -8 33 -19 41 -24z
m103 -75 l28 -20 -323 -323 -323 -323 -65 0 -65 0 349 349 c193 193 355 347
360 344 6 -4 24 -16 39 -27z m2165 -30 l20 -33 -302 -302 -301 -301 -65 0 -65
0 339 339 c187 187 343 338 347 335 4 -2 16 -19 27 -38z m62 -128 l19 -43
-232 -232 -232 -233 -65 0 -65 0 275 275 c151 151 276 275 278 275 2 0 12 -19
22 -42z m50 -149 l13 -51 -154 -154 -154 -154 -65 0 -65 0 205 205 c113 113
206 205 206 205 1 0 8 -23 14 -51z m39 -189 c1 -30 -8 -44 -66 -102 l-67 -68
-66 0 -65 0 125 125 c135 136 136 136 139 45z"/>
<path d="M4522 678 c-664 -663 -694 -695 -620 -673 24 8 1056 1030 1159 1148
57 65 72 97 47 97 -6 0 -270 -258 -586 -572z"/>
<path d="M4623 578 c-558 -557 -594 -595 -521 -573 24 8 858 832 959 948 57
65 72 97 47 97 -6 0 -225 -213 -485 -472z"/>
<path d="M4723 478 c-452 -450 -492 -495 -421 -472 25 7 661 634 759 747 56
65 72 97 48 97 -7 0 -180 -168 -386 -372z"/>
<path d="M4823 378 c-345 -342 -390 -394 -322 -373 25 8 468 441 560 548 56
64 72 97 48 97 -6 0 -135 -123 -286 -272z"/>
<path d="M4924 278 c-185 -182 -261 -265 -250 -275 14 -14 62 23 192 149 203
197 286 298 244 298 -6 0 -90 -78 -186 -172z"/>
</g>
</svg>
